<?xml version="1.0" encoding="utf-8"?>
<!-- Generator: Adobe Illustrator 16.2.0, SVG Export Plug-In . SVG Version: 6.00 Build 0)  -->
<!DOCTYPE svg PUBLIC "-//W3C//DTD SVG 1.1//EN" "http://www.w3.org/Graphics/SVG/1.1/DTD/svg11.dtd">
<svg version="1.1" id="图层_1" xmlns="http://www.w3.org/2000/svg" xmlns:xlink="http://www.w3.org/1999/xlink" x="0px" y="0px"
	 width="1451.34px" height="1451.34px" viewBox="0 0 1451.34 1451.34" enable-background="new 0 0 1451.34 1451.34"
	 xml:space="preserve">
<g>
	<path fill="none" stroke="#000000" stroke-width="200" stroke-miterlimit="10" d="M1273.915,803.157
		c0,303.027-245.662,548.688-548.688,548.688c-303.035,0-548.689-245.661-548.689-548.688"/>
	<path fill="none" stroke="#000000" stroke-width="200" stroke-miterlimit="10" d="M723.691,1352.339
		c-303.028,0-548.689-245.661-548.689-548.688c0-303.035,245.661-548.69,548.689-548.69"/>
	<path stroke="#000000" stroke-miterlimit="10" d="M1373.319,790.157c0,54.791-44.421,99.212-99.211,99.212
		c-54.793,0-99.215-44.421-99.215-99.212c0-54.795,44.422-99.214,99.215-99.214C1328.898,690.943,1373.319,735.362,1373.319,790.157
		z"/>
	<polygon stroke="#000000" stroke-miterlimit="10" points="1147.348,252.084 926.49,379.594 705.636,507.106 706.484,253.552 
		707.33,0 927.342,126.042 	"/>
</g>
</svg>
